{
    "asset" : {
        "generator" : "Khronos glTF Blender I/O v1.7.33",
        "version" : "2.0"
    },
    "extensionsUsed" : [
        "KHR_texture_transform"
    ],
    "extensionsRequired" : [
        "KHR_texture_transform"
    ],
    "scene" : 0,
    "scenes" : [
        {
            "name" : "Scene",
            "nodes" : [
                0
            ]
        }
    ],
    "nodes" : [
        {
            "mesh" : 0,
            "name" : "Sphere",
            "translation" : [
                0,
                0.6229487657546997,
                0
            ]
        }
    ],
    "materials" : [
        {
            "doubleSided" : true,
            "name" : "Material.005",
            "pbrMetallicRoughness" : {
                "baseColorTexture" : {
                    "extensions" : {
                        "KHR_texture_transform" : {
                            "scale" : [
                                -2.700000286102295,
                                1
                            ]
                        }
                    },
                    "index" : 0
                },
                "metallicFactor" : 0,
                "roughnessFactor" : 0.5
            }
        },
        {
            "doubleSided" : true,
            "name" : "Material.002",
            "pbrMetallicRoughness" : {
                "baseColorTexture" : {
                    "index" : 1
                },
                "metallicFactor" : 0,
                "roughnessFactor" : 0
            }
        }
    ],
    "meshes" : [
        {
            "name" : "Sphere.004",
            "primitives" : [
                {
                    "attributes" : {
                        "POSITION" : 0,
                        "NORMAL" : 1,
                        "TEXCOORD_0" : 2
                    },
                    "indices" : 3,
                    "material" : 0
                },
                {
                    "attributes" : {
                        "POSITION" : 4,
                        "NORMAL" : 5,
                        "TEXCOORD_0" : 6
                    },
                    "indices" : 7,
                    "material" : 1
                }
            ]
        }
    ],
    "textures" : [
        {
            "sampler" : 0,
            "source" : 0
        },
        {
            "sampler" : 0,
            "source" : 1
        }
    ],
    "images" : [
        {
            "mimeType" : "image/jpeg",
            "name" : "veine yeux",
            "uri" : "veine%20yeux.jpg"
        },
        {
            "mimeType" : "image/png",
            "name" : "oeil_pour_scene-removebg-preview",
            "uri" : "oeil_pour_scene-removebg-preview.png"
        }
    ],
    "accessors" : [
        {
            "bufferView" : 0,
            "componentType" : 5126,
            "count" : 461,
            "max" : [
                0.9999508857727051,
                0.9260745644569397,
                0.6244988441467285
            ],
            "min" : [
                -0.999950110912323,
                -0.9260751008987427,
                -1.0372772216796875
            ],
            "type" : "VEC3"
        },
        {
            "bufferView" : 1,
            "componentType" : 5126,
            "count" : 461,
            "type" : "VEC3"
        },
        {
            "bufferView" : 2,
            "componentType" : 5126,
            "count" : 461,
            "type" : "VEC2"
        },
        {
            "bufferView" : 3,
            "componentType" : 5123,
            "count" : 2400,
            "type" : "SCALAR"
        },
        {
            "bufferView" : 4,
            "componentType" : 5126,
            "count" : 352,
            "max" : [
                0.5613477230072021,
                0.5555568337440491,
                0.607960045337677
            ],
            "min" : [
                -0.5497382283210754,
                -0.5555564761161804,
                0.5177838206291199
            ],
            "type" : "VEC3"
        },
        {
            "bufferView" : 5,
            "componentType" : 5126,
            "count" : 352,
            "type" : "VEC3"
        },
        {
            "bufferView" : 6,
            "componentType" : 5126,
            "count" : 352,
            "type" : "VEC2"
        },
        {
            "bufferView" : 7,
            "componentType" : 5123,
            "count" : 480,
            "type" : "SCALAR"
        }
    ],
    "bufferViews" : [
        {
            "buffer" : 0,
            "byteLength" : 5532,
            "byteOffset" : 0
        },
        {
            "buffer" : 0,
            "byteLength" : 5532,
            "byteOffset" : 5532
        },
        {
            "buffer" : 0,
            "byteLength" : 3688,
            "byteOffset" : 11064
        },
        {
            "buffer" : 0,
            "byteLength" : 4800,
            "byteOffset" : 14752
        },
        {
            "buffer" : 0,
            "byteLength" : 4224,
            "byteOffset" : 19552
        },
        {
            "buffer" : 0,
            "byteLength" : 4224,
            "byteOffset" : 23776
        },
        {
            "buffer" : 0,
            "byteLength" : 2816,
            "byteOffset" : 28000
        },
        {
            "buffer" : 0,
            "byteLength" : 960,
            "byteOffset" : 30816
        }
    ],
    "samplers" : [
        {
            "magFilter" : 9729,
            "minFilter" : 9987
        }
    ],
    "buffers" : [
        {
            "byteLength" : 31776,
            "uri" : "oeil.bin"
        }
    ]
}
