{
    "asset" : {
        "generator" : "Khronos glTF Blender I/O v1.7.33",
        "version" : "2.0"
    },
    "scene" : 0,
    "scenes" : [
        {
            "name" : "Scene",
            "nodes" : [
                0
            ]
        }
    ],
    "nodes" : [
        {
            "mesh" : 0,
            "name" : "Ecran",
            "rotation" : [
                -0.013918918557465076,
                0,
                0,
                0.99990314245224
            ]
        }
    ],
    "materials" : [
        {
            "doubleSided" : true,
            "name" : "Material",
            "pbrMetallicRoughness" : {
                "baseColorTexture" : {
                    "index" : 0
                },
                "metallicFactor" : 0,
                "roughnessFactor" : 0.4000000059604645
            }
        },
        {
            "doubleSided" : true,
            "emissiveFactor" : [
                0.030560029670596123,
                0.030560029670596123,
                0.030560029670596123
            ],
            "name" : "Material.003",
            "pbrMetallicRoughness" : {}
        },
        {
            "doubleSided" : true,
            "emissiveFactor" : [
                0.23438888788223267,
                0.23438888788223267,
                0.23438888788223267
            ],
            "name" : "Material.004",
            "pbrMetallicRoughness" : {}
        },
        {
            "doubleSided" : true,
            "emissiveFactor" : [
                0.28349384665489197,
                0.28349384665489197,
                0.28349384665489197
            ],
            "name" : "Mat\u00e9riau.005",
            "pbrMetallicRoughness" : {}
        },
        {
            "doubleSided" : true,
            "emissiveFactor" : [
                0.33881673216819763,
                0.33881673216819763,
                0.33881673216819763
            ],
            "name" : "Material.002",
            "pbrMetallicRoughness" : {}
        },
        {
            "doubleSided" : true,
            "emissiveFactor" : [
                0.3862207233905792,
                0.3862207233905792,
                0.3862207233905792
            ],
            "name" : "Material.001",
            "pbrMetallicRoughness" : {}
        },
        {
            "doubleSided" : true,
            "emissiveFactor" : [
                0.25979867577552795,
                0.25979867577552795,
                0.25979867577552795
            ],
            "name" : "Mat\u00e9riau",
            "pbrMetallicRoughness" : {}
        },
        {
            "doubleSided" : true,
            "emissiveFactor" : [
                0.5213256478309631,
                0.5213256478309631,
                0.5213256478309631
            ],
            "name" : "Mat\u00e9riau.007",
            "pbrMetallicRoughness" : {}
        },
        {
            "doubleSided" : true,
            "name" : "Mat\u00e9riau.008",
            "pbrMetallicRoughness" : {
                "baseColorFactor" : [
                    0.14642855525016785,
                    0.1533227264881134,
                    0.1397160440683365,
                    1
                ],
                "metallicFactor" : 0,
                "roughnessFactor" : 0.8272727131843567
            }
        }
    ],
    "meshes" : [
        {
            "name" : "Cube.111",
            "primitives" : [
                {
                    "attributes" : {
                        "POSITION" : 0,
                        "NORMAL" : 1,
                        "TEXCOORD_0" : 2,
                        "TEXCOORD_1" : 3
                    },
                    "indices" : 4,
                    "material" : 0
                },
                {
                    "attributes" : {
                        "POSITION" : 5,
                        "NORMAL" : 6,
                        "TEXCOORD_0" : 7,
                        "TEXCOORD_1" : 8
                    },
                    "indices" : 9,
                    "material" : 1
                },
                {
                    "attributes" : {
                        "POSITION" : 10,
                        "NORMAL" : 11,
                        "TEXCOORD_0" : 12,
                        "TEXCOORD_1" : 13
                    },
                    "indices" : 14,
                    "material" : 2
                },
                {
                    "attributes" : {
                        "POSITION" : 15,
                        "NORMAL" : 16,
                        "TEXCOORD_0" : 17,
                        "TEXCOORD_1" : 18
                    },
                    "indices" : 19,
                    "material" : 3
                },
                {
                    "attributes" : {
                        "POSITION" : 20,
                        "NORMAL" : 21,
                        "TEXCOORD_0" : 22,
                        "TEXCOORD_1" : 23
                    },
                    "indices" : 24,
                    "material" : 4
                },
                {
                    "attributes" : {
                        "POSITION" : 25,
                        "NORMAL" : 26,
                        "TEXCOORD_0" : 27,
                        "TEXCOORD_1" : 28
                    },
                    "indices" : 29,
                    "material" : 5
                },
                {
                    "attributes" : {
                        "POSITION" : 30,
                        "NORMAL" : 31,
                        "TEXCOORD_0" : 32,
                        "TEXCOORD_1" : 33
                    },
                    "indices" : 34,
                    "material" : 6
                },
                {
                    "attributes" : {
                        "POSITION" : 35,
                        "NORMAL" : 36,
                        "TEXCOORD_0" : 37,
                        "TEXCOORD_1" : 38
                    },
                    "indices" : 39,
                    "material" : 7
                },
                {
                    "attributes" : {
                        "POSITION" : 40,
                        "NORMAL" : 41,
                        "TEXCOORD_0" : 42,
                        "TEXCOORD_1" : 43
                    },
                    "indices" : 44,
                    "material" : 8
                }
            ]
        }
    ],
    "textures" : [
        {
            "sampler" : 0,
            "source" : 0
        }
    ],
    "images" : [
        {
            "mimeType" : "image/png",
            "name" : "\u00e7a ma emu",
            "uri" : "%C3%A7a%20ma%20emu.png"
        }
    ],
    "accessors" : [
        {
            "bufferView" : 0,
            "componentType" : 5126,
            "count" : 4,
            "max" : [
                1.4788305759429932,
                2.0604231357574463,
                1.6699289083480835
            ],
            "min" : [
                0.5446460247039795,
                0.12923529744148254,
                -1.3079065084457397
            ],
            "type" : "VEC3"
        },
        {
            "bufferView" : 1,
            "componentType" : 5126,
            "count" : 4,
            "type" : "VEC3"
        },
        {
            "bufferView" : 2,
            "componentType" : 5126,
            "count" : 4,
            "type" : "VEC2"
        },
        {
            "bufferView" : 3,
            "componentType" : 5126,
            "count" : 4,
            "type" : "VEC2"
        },
        {
            "bufferView" : 4,
            "componentType" : 5123,
            "count" : 6,
            "type" : "SCALAR"
        },
        {
            "bufferView" : 5,
            "componentType" : 5126,
            "count" : 220,
            "max" : [
                1.5182673931121826,
                2.143132209777832,
                1.7804158926010132
            ],
            "min" : [
                0.47896885871887207,
                0.05456904321908951,
                -1.4216889142990112
            ],
            "type" : "VEC3"
        },
        {
            "bufferView" : 6,
            "componentType" : 5126,
            "count" : 220,
            "type" : "VEC3"
        },
        {
            "bufferView" : 7,
            "componentType" : 5126,
            "count" : 220,
            "type" : "VEC2"
        },
        {
            "bufferView" : 8,
            "componentType" : 5126,
            "count" : 220,
            "type" : "VEC2"
        },
        {
            "bufferView" : 9,
            "componentType" : 5123,
            "count" : 342,
            "type" : "SCALAR"
        },
        {
            "bufferView" : 10,
            "componentType" : 5126,
            "count" : 2715,
            "max" : [
                1.0108866691589355,
                0.03367046266794205,
                1.6013774871826172
            ],
            "min" : [
                -1.595585823059082,
                -0.15203508734703064,
                -1.6895174980163574
            ],
            "type" : "VEC3"
        },
        {
            "bufferView" : 11,
            "componentType" : 5126,
            "count" : 2715,
            "type" : "VEC3"
        },
        {
            "bufferView" : 12,
            "componentType" : 5126,
            "count" : 2715,
            "type" : "VEC2"
        },
        {
            "bufferView" : 13,
            "componentType" : 5126,
            "count" : 2715,
            "type" : "VEC2"
        },
        {
            "bufferView" : 14,
            "componentType" : 5123,
            "count" : 4353,
            "type" : "SCALAR"
        },
        {
            "bufferView" : 15,
            "componentType" : 5126,
            "count" : 1536,
            "max" : [
                0.958175539970398,
                0.16526541113853455,
                1.610662579536438
            ],
            "min" : [
                0.4235333204269409,
                -0.051543913781642914,
                -1.416125774383545
            ],
            "type" : "VEC3"
        },
        {
            "bufferView" : 16,
            "componentType" : 5126,
            "count" : 1536,
            "type" : "VEC3"
        },
        {
            "bufferView" : 17,
            "componentType" : 5126,
            "count" : 1536,
            "type" : "VEC2"
        },
        {
            "bufferView" : 18,
            "componentType" : 5126,
            "count" : 1536,
            "type" : "VEC2"
        },
        {
            "bufferView" : 19,
            "componentType" : 5123,
            "count" : 2472,
            "type" : "SCALAR"
        },
        {
            "bufferView" : 20,
            "componentType" : 5126,
            "count" : 144,
            "max" : [
                -0.6353616714477539,
                -0.010114751756191254,
                0.39556294679641724
            ],
            "min" : [
                -1.3761250972747803,
                -0.07878788560628891,
                -0.6690558791160583
            ],
            "type" : "VEC3"
        },
        {
            "bufferView" : 21,
            "componentType" : 5126,
            "count" : 144,
            "type" : "VEC3"
        },
        {
            "bufferView" : 22,
            "componentType" : 5126,
            "count" : 144,
            "type" : "VEC2"
        },
        {
            "bufferView" : 23,
            "componentType" : 5126,
            "count" : 144,
            "type" : "VEC2"
        },
        {
            "bufferView" : 24,
            "componentType" : 5123,
            "count" : 276,
            "type" : "SCALAR"
        },
        {
            "bufferView" : 25,
            "componentType" : 5126,
            "count" : 14396,
            "max" : [
                0.4828324317932129,
                0.03543452173471451,
                1.2216838598251343
            ],
            "min" : [
                -0.7091095447540283,
                -0.04969247430562973,
                -1.2839769124984741
            ],
            "type" : "VEC3"
        },
        {
            "bufferView" : 26,
            "componentType" : 5126,
            "count" : 14396,
            "type" : "VEC3"
        },
        {
            "bufferView" : 27,
            "componentType" : 5126,
            "count" : 14396,
            "type" : "VEC2"
        },
        {
            "bufferView" : 28,
            "componentType" : 5126,
            "count" : 14396,
            "type" : "VEC2"
        },
        {
            "bufferView" : 29,
            "componentType" : 5123,
            "count" : 27588,
            "type" : "SCALAR"
        },
        {
            "bufferView" : 30,
            "componentType" : 5126,
            "count" : 24,
            "max" : [
                0.5279275178909302,
                0.011729873716831207,
                1.2747102975845337
            ],
            "min" : [
                -0.7661275863647461,
                -0.059412918984889984,
                -1.3242281675338745
            ],
            "type" : "VEC3"
        },
        {
            "bufferView" : 31,
            "componentType" : 5126,
            "count" : 24,
            "type" : "VEC3"
        },
        {
            "bufferView" : 32,
            "componentType" : 5126,
            "count" : 24,
            "type" : "VEC2"
        },
        {
            "bufferView" : 33,
            "componentType" : 5126,
            "count" : 24,
            "type" : "VEC2"
        },
        {
            "bufferView" : 34,
            "componentType" : 5123,
            "count" : 66,
            "type" : "SCALAR"
        },
        {
            "bufferView" : 35,
            "componentType" : 5126,
            "count" : 309,
            "max" : [
                0.5909813642501831,
                0.013049758970737457,
                -1.1997754573822021
            ],
            "min" : [
                0.16716885566711426,
                -0.04466148465871811,
                -1.5106022357940674
            ],
            "type" : "VEC3"
        },
        {
            "bufferView" : 36,
            "componentType" : 5126,
            "count" : 309,
            "type" : "VEC3"
        },
        {
            "bufferView" : 37,
            "componentType" : 5126,
            "count" : 309,
            "type" : "VEC2"
        },
        {
            "bufferView" : 38,
            "componentType" : 5126,
            "count" : 309,
            "type" : "VEC2"
        },
        {
            "bufferView" : 39,
            "componentType" : 5123,
            "count" : 483,
            "type" : "SCALAR"
        },
        {
            "bufferView" : 40,
            "componentType" : 5126,
            "count" : 178,
            "max" : [
                0.2664155960083008,
                -0.06905528157949448,
                1.5591340065002441
            ],
            "min" : [
                -0.2934112548828125,
                -0.1288200318813324,
                1.2540775537490845
            ],
            "type" : "VEC3"
        },
        {
            "bufferView" : 41,
            "componentType" : 5126,
            "count" : 178,
            "type" : "VEC3"
        },
        {
            "bufferView" : 42,
            "componentType" : 5126,
            "count" : 178,
            "type" : "VEC2"
        },
        {
            "bufferView" : 43,
            "componentType" : 5126,
            "count" : 178,
            "type" : "VEC2"
        },
        {
            "bufferView" : 44,
            "componentType" : 5123,
            "count" : 288,
            "type" : "SCALAR"
        }
    ],
    "bufferViews" : [
        {
            "buffer" : 0,
            "byteLength" : 48,
            "byteOffset" : 0
        },
        {
            "buffer" : 0,
            "byteLength" : 48,
            "byteOffset" : 48
        },
        {
            "buffer" : 0,
            "byteLength" : 32,
            "byteOffset" : 96
        },
        {
            "buffer" : 0,
            "byteLength" : 32,
            "byteOffset" : 128
        },
        {
            "buffer" : 0,
            "byteLength" : 12,
            "byteOffset" : 160
        },
        {
            "buffer" : 0,
            "byteLength" : 2640,
            "byteOffset" : 172
        },
        {
            "buffer" : 0,
            "byteLength" : 2640,
            "byteOffset" : 2812
        },
        {
            "buffer" : 0,
            "byteLength" : 1760,
            "byteOffset" : 5452
        },
        {
            "buffer" : 0,
            "byteLength" : 1760,
            "byteOffset" : 7212
        },
        {
            "buffer" : 0,
            "byteLength" : 684,
            "byteOffset" : 8972
        },
        {
            "buffer" : 0,
            "byteLength" : 32580,
            "byteOffset" : 9656
        },
        {
            "buffer" : 0,
            "byteLength" : 32580,
            "byteOffset" : 42236
        },
        {
            "buffer" : 0,
            "byteLength" : 21720,
            "byteOffset" : 74816
        },
        {
            "buffer" : 0,
            "byteLength" : 21720,
            "byteOffset" : 96536
        },
        {
            "buffer" : 0,
            "byteLength" : 8706,
            "byteOffset" : 118256
        },
        {
            "buffer" : 0,
            "byteLength" : 18432,
            "byteOffset" : 126964
        },
        {
            "buffer" : 0,
            "byteLength" : 18432,
            "byteOffset" : 145396
        },
        {
            "buffer" : 0,
            "byteLength" : 12288,
            "byteOffset" : 163828
        },
        {
            "buffer" : 0,
            "byteLength" : 12288,
            "byteOffset" : 176116
        },
        {
            "buffer" : 0,
            "byteLength" : 4944,
            "byteOffset" : 188404
        },
        {
            "buffer" : 0,
            "byteLength" : 1728,
            "byteOffset" : 193348
        },
        {
            "buffer" : 0,
            "byteLength" : 1728,
            "byteOffset" : 195076
        },
        {
            "buffer" : 0,
            "byteLength" : 1152,
            "byteOffset" : 196804
        },
        {
            "buffer" : 0,
            "byteLength" : 1152,
            "byteOffset" : 197956
        },
        {
            "buffer" : 0,
            "byteLength" : 552,
            "byteOffset" : 199108
        },
        {
            "buffer" : 0,
            "byteLength" : 172752,
            "byteOffset" : 199660
        },
        {
            "buffer" : 0,
            "byteLength" : 172752,
            "byteOffset" : 372412
        },
        {
            "buffer" : 0,
            "byteLength" : 115168,
            "byteOffset" : 545164
        },
        {
            "buffer" : 0,
            "byteLength" : 115168,
            "byteOffset" : 660332
        },
        {
            "buffer" : 0,
            "byteLength" : 55176,
            "byteOffset" : 775500
        },
        {
            "buffer" : 0,
            "byteLength" : 288,
            "byteOffset" : 830676
        },
        {
            "buffer" : 0,
            "byteLength" : 288,
            "byteOffset" : 830964
        },
        {
            "buffer" : 0,
            "byteLength" : 192,
            "byteOffset" : 831252
        },
        {
            "buffer" : 0,
            "byteLength" : 192,
            "byteOffset" : 831444
        },
        {
            "buffer" : 0,
            "byteLength" : 132,
            "byteOffset" : 831636
        },
        {
            "buffer" : 0,
            "byteLength" : 3708,
            "byteOffset" : 831768
        },
        {
            "buffer" : 0,
            "byteLength" : 3708,
            "byteOffset" : 835476
        },
        {
            "buffer" : 0,
            "byteLength" : 2472,
            "byteOffset" : 839184
        },
        {
            "buffer" : 0,
            "byteLength" : 2472,
            "byteOffset" : 841656
        },
        {
            "buffer" : 0,
            "byteLength" : 966,
            "byteOffset" : 844128
        },
        {
            "buffer" : 0,
            "byteLength" : 2136,
            "byteOffset" : 845096
        },
        {
            "buffer" : 0,
            "byteLength" : 2136,
            "byteOffset" : 847232
        },
        {
            "buffer" : 0,
            "byteLength" : 1424,
            "byteOffset" : 849368
        },
        {
            "buffer" : 0,
            "byteLength" : 1424,
            "byteOffset" : 850792
        },
        {
            "buffer" : 0,
            "byteLength" : 576,
            "byteOffset" : 852216
        }
    ],
    "samplers" : [
        {
            "magFilter" : 9729,
            "minFilter" : 9987
        }
    ],
    "buffers" : [
        {
            "byteLength" : 852792,
            "uri" : "pcportable.bin"
        }
    ]
}
